<?xml version="1.0" encoding="UTF-8"?>
<svg width="128pt" height="128pt" version="1.1" viewBox="0 0 128 128" xmlns="http://www.w3.org/2000/svg">
 <path d="m89.434 32.766c-8.0273-6.2109-18.062-9.2422-28.188-8.5117-10.121 0.72656-19.621 5.168-26.672 12.465l-2.4883 2.4883-0.085938-11.234c-0.015625-2.2109-1.8203-3.9883-4.0273-3.9727l-8 0.054688c-1.0625 0.007812-2.0742 0.4375-2.8203 1.1914s-1.1602 1.7773-1.1523 2.8359v35.918h35.918c2.207 0.015625 4.0117-1.7617 4.0273-3.9727l0.054688-8c0.015625-2.2109-1.7617-4.0117-3.9727-4.0273l-6.0312-0.078125 1.1523-1.1523c5.4727-5.4492 13.223-7.9453 20.844-6.7109 7.6211 1.2344 14.191 6.0508 17.66 12.945 3.4844 6.7383 3.4805 14.75-0.003906 21.484-3.2031 6.3438-9.043 10.953-15.957 12.594-6.918 1.6367-14.203 0.14062-19.914-4.0938-1.5-1.2266-3.6797-1.1484-5.0859 0.18359l-5.8555 5.8594h-0.003907c-0.79297 0.76953-1.2305 1.8398-1.2031 2.9492 0.03125 1.1094 0.52344 2.1562 1.3633 2.8828 11.094 8.9727 26.133 11.355 39.457 6.25 13.328-5.1016 22.926-16.918 25.188-31.008 2.2656-14.09-3.1445-28.316-14.203-37.34z"/>
</svg>
